<svg width="194" height="92" viewBox="0 0 194 92" fill="none" xmlns="http://www.w3.org/2000/svg">
<path d="M29.9883 43.75C32.8633 43.75 35.3008 43.3958 37.3008 42.6875C39.3424 41.9375 41.0091 40.9167 42.3008 39.625C43.5925 38.3333 44.53 36.8333 45.1133 35.125C45.6966 33.375 45.9883 31.5 45.9883 29.5C45.9883 25.5 44.6758 22.375 42.0508 20.125C39.4675 17.875 35.4466 16.75 29.9883 16.75H21.4883V43.75H29.9883ZM74.8633 92H55.7383C52.1966 92 49.6549 90.6667 48.1133 88L32.9883 61.5625C32.28 60.4375 31.4883 59.625 30.6133 59.125C29.7383 58.5833 28.4883 58.3125 26.8633 58.3125H21.4883V92H0.363281V0.937499H29.9883C36.5716 0.937499 42.1758 1.625 46.8008 3C51.4675 4.33333 55.2591 6.20833 58.1758 8.62499C61.1341 11.0417 63.28 13.8958 64.6133 17.1875C65.9466 20.4792 66.6133 24.0625 66.6133 27.9375C66.6133 30.8958 66.2175 33.6875 65.4258 36.3125C64.6341 38.9375 63.4675 41.375 61.9258 43.625C60.3841 45.8333 58.4675 47.8125 56.1758 49.5625C53.9258 51.3125 51.3216 52.75 48.3633 53.875C49.7383 54.5833 51.03 55.4792 52.2383 56.5625C53.4466 57.6042 54.5299 58.8542 55.4883 60.3125L74.8633 92ZM193.642 0.937499V92H175.017V39.625C175.017 38.4167 175.037 37.1042 175.079 35.6875C175.162 34.2708 175.287 32.8333 175.454 31.375L151.267 78.1875C150.517 79.6458 149.496 80.75 148.204 81.5C146.954 82.25 145.517 82.625 143.892 82.625H141.017C139.392 82.625 137.933 82.25 136.642 81.5C135.392 80.75 134.392 79.6458 133.642 78.1875L109.454 31.25C109.579 32.75 109.683 34.2292 109.767 35.6875C109.85 37.1042 109.892 38.4167 109.892 39.625V92H91.2666V0.937499H107.392C108.308 0.937499 109.1 0.958331 109.767 0.999994C110.475 1.04166 111.1 1.16666 111.642 1.375C112.183 1.58333 112.662 1.91666 113.079 2.375C113.537 2.79167 113.975 3.39583 114.392 4.18749L137.829 50.375C138.662 51.9583 139.454 53.6042 140.204 55.3125C140.996 57.0208 141.746 58.7708 142.454 60.5625C143.162 58.7292 143.892 56.9375 144.642 55.1875C145.433 53.4375 146.267 51.7708 147.142 50.1875L170.517 4.18749C170.933 3.39583 171.35 2.79167 171.767 2.375C172.225 1.91666 172.725 1.58333 173.267 1.375C173.808 1.16666 174.412 1.04166 175.079 0.999994C175.787 0.958331 176.6 0.937499 177.517 0.937499H193.642Z" fill="#24DB8B"/>
</svg>
