<svg width="65" height="65" viewBox="0 0 65 65" fill="none" xmlns="http://www.w3.org/2000/svg">
<path d="M32.5 6.09375C17.9166 6.09375 6.09375 17.9166 6.09375 32.5C6.09375 47.0834 17.9166 58.9062 32.5 58.9062C47.0834 58.9062 58.9062 47.0834 58.9062 32.5C58.9062 17.9166 47.0834 6.09375 32.5 6.09375ZM25.3906 44.6875H20.3125V26.4062H25.3906V44.6875ZM22.8363 24.375H22.8079C21.2926 24.375 20.3125 23.2456 20.3125 21.8349C20.3125 20.3938 21.323 19.2969 22.8658 19.2969C24.4105 19.2969 25.3622 20.3938 25.3906 21.8349C25.3906 23.2446 24.4105 24.375 22.8363 24.375ZM44.6875 44.6875H39.6094V35.5469C39.6094 32.5 38.1408 31.4844 36.5625 31.4844C35.0949 31.4844 33.5156 32.5 33.5156 35.5469V44.6875H28.4375V26.4062H33.5156V29.4531C33.864 28.4568 35.5306 26.4062 38.5938 26.4062C42.6562 26.4062 44.6875 29.4531 44.6875 34.5312V44.6875Z" fill="#24DB8B"/>
</svg>
