<svg width="65" height="65" viewBox="0 0 65 65" fill="none" xmlns="http://www.w3.org/2000/svg">
<ellipse cx="31.5989" cy="32.5" rx="26.5271" ry="26.4062" fill="#24DB8B"/>
<path d="M46.139 24.178C45.9432 23.3371 45.3183 22.6626 44.4838 22.3951C42.2725 21.6856 37.4751 21 32.0153 21C26.5555 21 21.7581 21.6856 19.5463 22.3951C18.7117 22.6626 18.0869 23.3371 17.8911 24.178C17.5215 25.7659 17 28.7103 17 32.6797C17 36.649 17.5215 39.5935 17.8917 41.1813C18.0875 42.0223 18.7123 42.6968 19.5468 42.9642C21.7581 43.6738 26.5555 44.3594 32.0153 44.3594C37.4751 44.3594 42.2725 43.6738 44.4844 42.9642C45.3189 42.6968 45.9438 42.0223 46.1395 41.1813C46.5091 39.5935 47.0306 36.649 47.0306 32.6797C47.0306 28.7103 46.5091 25.7659 46.139 24.178ZM29.1278 37.3516V28.0078L37.7079 32.6797L29.1278 37.3516Z" fill="#121212"/>
</svg>
